<?xml version="1.0" encoding="UTF-8"?><!DOCTYPE svg PUBLIC "-//W3C//DTD SVG 1.1//EN" "http://www.w3.org/Graphics/SVG/1.1/DTD/svg11.dtd"><svg xmlns="http://www.w3.org/2000/svg"><symbol id="icon-android" viewBox="0 0 475.071 475.071">
    <g>
        <path d="M65.947 153.884c-8.183 0-15.136 2.853-20.844 8.566-5.708 5.711-8.564 12.562-8.564 20.555v122.772c0 8.179 2.855 15.126 8.564 20.837 5.708 5.712 12.657 8.562 20.841 8.562 8.186 0 15.085-2.851 20.699-8.562 5.618-5.711 8.425-12.658 8.425-20.837V183.005c0-7.996-2.857-14.847-8.565-20.555-5.709-5.71-12.564-8.566-20.556-8.566z"/>
        <path d="M106.494 349.457c0 8.754 3.046 16.177 9.136 22.269 6.091 6.085 13.512 9.13 22.27 9.13h21.128l.288 64.81c0 8.186 2.855 15.129 8.564 20.841 5.708 5.711 12.562 8.565 20.555 8.565 8.188 0 15.133-2.854 20.844-8.565 5.711-5.712 8.564-12.655 8.564-20.841v-64.81h39.397v64.81c0 8.186 2.854 15.129 8.562 20.841 5.715 5.711 12.662 8.565 20.848 8.565 8.179 0 15.126-2.854 20.834-8.565 5.708-5.712 8.559-12.655 8.559-20.841v-64.81h21.416c8.56 0 15.89-3.039 21.98-9.13 6.092-6.092 9.138-13.515 9.138-22.269V159.308H106.494v190.149z"/>
        <path d="M302.345 43.682L322.61 6.279c1.335-2.474.855-4.377-1.424-5.708-2.478-1.143-4.38-.572-5.708 1.714l-20.56 37.685c-18.082-7.994-37.205-11.991-57.384-11.991-20.174 0-39.304 3.997-57.387 11.991L159.591 2.286C158.263 0 156.357-.571 153.883.572c-2.285 1.331-2.758 3.234-1.426 5.708l20.271 37.402c-20.559 10.467-36.923 25.076-49.108 43.824-12.181 18.749-18.273 39.259-18.273 61.525h264.095c0-22.266-6.091-42.777-18.273-61.525-12.187-18.748-28.452-33.358-48.824-43.824zM185.144 98.068c-2.187 2.19-4.803 3.284-7.849 3.284-3.046 0-5.614-1.093-7.71-3.284-2.091-2.187-3.14-4.805-3.14-7.85 0-3.046 1.049-5.664 3.14-7.854 2.093-2.19 4.665-3.282 7.71-3.282 3.042 0 5.659 1.091 7.849 3.282 2.19 2.19 3.284 4.808 3.284 7.854 0 3.046-1.094 5.66-3.284 7.85zm120.345 0c-2.098 2.19-4.668 3.284-7.713 3.284-3.046 0-5.657-1.093-7.848-3.284-2.19-2.187-3.281-4.805-3.281-7.85 0-3.046 1.091-5.664 3.281-7.854 2.19-2.19 4.802-3.282 7.848-3.282 3.045 0 5.615 1.091 7.713 3.282 2.088 2.19 3.139 4.808 3.139 7.854 0 3.046-1.048 5.66-3.139 7.85z"/>
        <path d="M429.964 162.306c-5.708-5.614-12.655-8.422-20.841-8.422-7.991 0-14.843 2.808-20.551 8.422-5.711 5.616-8.568 12.517-8.568 20.699v122.772c0 8.179 2.857 15.126 8.568 20.837 5.708 5.712 12.56 8.562 20.551 8.562 8.186 0 15.133-2.851 20.841-8.562 5.715-5.711 8.568-12.658 8.568-20.837V183.005c0-8.183-2.853-15.084-8.568-20.699z"/>
    </g>
</symbol><symbol id="icon-earth" viewBox="0 0 48.625 48.625">
    <g>
        <path d="M35.432 10.815l.047.361-.541.112-.072.769h.648l.862-.083.445-.529-.473-.184-.259-.298-.389-.63-.186-.891-.731.149-.205.314v.354l.352.241z"/>
        <path d="M34.809 11.111l.039-.482-.429-.185-.6.139-.445.714v.463h.519z"/>
        <path d="M22.459 13.158l-.132.34h-.639v.33h.152l.022.162.392-.033.245-.152.064-.307.317-.027.125-.258-.291-.06-.255.005z"/>
        <path d="M20.812 13.757l-.025.323.463-.039.048-.324-.278-.219z"/>
        <path d="M48.619 24.061a24.552 24.552 0 0 0-.11-2.112 24.165 24.165 0 0 0-1.609-6.62c-.062-.155-.119-.312-.185-.465a24.341 24.341 0 0 0-4.939-7.441 24.19 24.19 0 0 0-1.11-1.086A24.22 24.22 0 0 0 24.312 0c-6.345 0-12.126 2.445-16.46 6.44a24.6 24.6 0 0 0-2.78 3.035A24.18 24.18 0 0 0 0 24.312c0 13.407 10.907 24.313 24.313 24.313 9.43 0 17.617-5.4 21.647-13.268a24.081 24.081 0 0 0 2.285-6.795c.245-1.381.379-2.801.379-4.25.001-.084-.004-.167-.005-.251zm-4.576-9.717l.141-.158c.185.359.358.724.523 1.094l-.23-.009-.434.06v-.987zm-3.513-4.242l.004-1.086c.382.405.75.822 1.102 1.254l-.438.652-1.531-.014-.096-.319.959-.487zM11.202 7.403v-.041h.487l.042-.167h.797v.348l-.229.306h-1.098l.001-.446zm.778 1.085s.487-.083.529-.083 0 .486 0 .486l-1.098.069-.209-.25.778-.222zm33.612 9.651h-1.779l-1.084-.807-1.141.111v.696h-.361l-.39-.278-1.976-.501v-1.28l-2.504.195-.776.417h-.994l-.487-.049-1.207.67v1.261l-2.467 1.78.205.76h.5l-.131.724-.352.129-.019 1.892 2.132 2.428h.928l.056-.148h1.668l.481-.445h.946l.519.52 1.41.146-.187 1.875 1.565 2.763-.824 1.575.056.742.649.647v1.784l.852 1.146v1.482h.736c-4.096 5.029-10.33 8.25-17.305 8.25C12.009 46.625 2 36.615 2 24.312c0-3.097.636-6.049 1.781-8.732v-.696l.798-.969c.277-.523.574-1.033.891-1.53l.036.405-.926 1.125a22.14 22.14 0 0 0-.798 1.665v1.27l.927.446v1.765l.889 1.517.723.111.093-.52-.853-1.316-.167-1.279h.5l.211 1.316 1.233 1.799-.318.581.784 1.199 1.947.482v-.315l.779.111-.074.556.612.112.945.258 1.335 1.521 1.705.129.167 1.391-1.167.816-.055 1.242-.167.76 1.688 2.113.129.724s.612.166.687.166c.074 0 1.372.983 1.372.983v3.819l.463.13-.315 1.762.779 1.039-.144 1.746 1.029 1.809 1.321 1.154 1.328.024.13-.427-.976-.822.056-.408.175-.5.037-.51-.66-.02-.333-.418.548-.527.074-.398-.612-.175.036-.37.872-.132 1.326-.637.445-.816 1.391-1.78-.316-1.392.427-.741 1.279.039.861-.682.278-2.686.955-1.213.167-.779-.871-.279-.575-.943-1.965-.02-1.558-.594-.074-1.111-.52-.909-1.409-.021-.814-1.278-.723-.353-.037.39-1.316.078-.482-.671-1.373-.279-1.131 1.307-1.78-.302-.129-2.006-1.299-.222.521-.984-.149-.565-1.707 1.141-1.074-.131-.383-.839.234-.865.592-1.091 1.363-.69 2.632-.001-.007.803.946.44-.075-1.372.682-.686 1.376-.904.094-.636 1.372-1.428 1.459-.808-.129-.106.988-.93.362.096.166.208.375-.416.092-.041-.411-.058-.417-.139v-.4l.221-.181h.487l.223.098.193.39.236-.036v-.034l.068.023.684-.105.097-.334.39.098v.362l-.362.249h.001l.053.397 1.239.382.003.015.285-.024.019-.537-.982-.447-.056-.258.815-.278.036-.78-.852-.519-.056-1.315-1.168.574h-.426l.112-1.001-1.59-.375-.658.497v1.516l-1.183.375-.474.988-.514.083v-1.264l-1.112-.154-.556-.362-.224-.819 1.989-1.164.973-.296.098.654.542-.028.042-.329.567-.081.01-.115-.244-.101-.056-.348.697-.059.421-.438.023-.032.005.002.128-.132 1.465-.185.648.55-1.699.905 2.162.51.28-.723h.945l.334-.63-.668-.167v-.797l-2.095-.928-1.446.167-.816.427.056 1.038-.853-.13-.131-.574.817-.742-1.483-.074-.426.129-.185.5.556.094-.111.556-.945.056-.148.37-1.371.038s-.038-.778-.093-.778l1.075-.019.817-.798-.446-.223-.593.576-.984-.056-.593-.816h-1.261l-1.316.983h1.206l.11.353-.313.291 1.335.037.204.482-1.503-.056-.073-.371-.945-.204-.501-.278-1.125.009A22.188 22.188 0 0 1 24.312 2c5.642 0 10.797 2.109 14.73 5.574l-.265.474-1.029.403-.434.471.1.549.531.074.32.8.916-.369.151 1.07h-.276l-.752-.111-.834.14-.807 1.14-1.154.181-.167.988.487.115-.141.635-1.146-.23-1.051.23-.223.585.182 1.228.617.289 1.035-.006.699-.063.213-.556 1.092-1.419.719.147.708-.64.132.5 1.742 1.175-.213.286-.785-.042.302.428.483.106.566-.236-.012-.682.251-.126-.202-.214-1.162-.648-.306-.861h.966l.309.306.832.717.035.867.862.918.321-1.258.597-.326.112 1.029.583.64 1.163-.02c.225.579.427 1.168.604 1.769l-.121.112zm-32.331-7.093l.584-.278.528.126-.182.709-.57.181-.36-.738zm3.099 1.669v.459h-1.334l-.5-.139.125-.32.641-.265h.876v.265h.192zm.614.64v.445l-.334.215-.416.077v-.737h.75zm-.376-.181v-.529l.459.418-.459.111zm.209 1.07v.433l-.319.32h-.709l.111-.486.335-.029.069-.167.513-.071zm-1.766-.889h.737l-.945 1.321-.39-.209.084-.556.514-.556zm3.018.737v.432h-.709l-.194-.28v-.402h.056l.847.25zm-.655-.594l.202-.212.341.212-.273.225-.27-.225zm28.55 5.767l.07-.082c.029.126.06.252.088.38l-.158-.298z"/>
        <path d="M3.782 14.884v.696c.243-.568.511-1.122.798-1.665l-.798.969z"/>
    </g>
</symbol><symbol id="icon-facebook" viewBox="0 0 96.124 96.123">
    <path d="M72.089.02L59.624 0C45.62 0 36.57 9.285 36.57 23.656v10.907H24.037a1.96 1.96 0 0 0-1.96 1.961v15.803a1.96 1.96 0 0 0 1.96 1.96H36.57v39.876a1.96 1.96 0 0 0 1.96 1.96h16.352a1.96 1.96 0 0 0 1.96-1.96V54.287h14.654a1.96 1.96 0 0 0 1.96-1.96l.006-15.803a1.963 1.963 0 0 0-1.961-1.961H56.842v-9.246c0-4.444 1.059-6.7 6.848-6.7l8.397-.003a1.96 1.96 0 0 0 1.959-1.96V1.98A1.96 1.96 0 0 0 72.089.02z"/>
</symbol><symbol id="icon-googleplus" viewBox="0 0 475.092 475.092">
    <g>
        <path d="M273.372 302.498a148.384 148.384 0 0 0-16.7-18.842c-6.091-5.804-12.183-11.088-18.271-15.845-6.092-4.757-11.659-9.329-16.702-13.709-5.042-4.374-9.135-8.945-12.275-13.702-3.14-4.757-4.711-9.61-4.711-14.558 0-6.855 2.19-13.278 6.567-19.274 4.377-5.996 9.707-11.799 15.986-17.417 6.28-5.617 12.559-11.753 18.844-18.415 6.276-6.665 11.604-15.465 15.985-26.412 4.373-10.944 6.563-23.458 6.563-37.542 0-16.75-3.713-32.835-11.136-48.25-7.423-15.418-17.89-27.412-31.405-35.976h38.54L303.2 0H178.441c-17.699 0-35.498 1.906-53.384 5.72-26.453 5.9-48.723 19.368-66.806 40.397-18.08 21.033-27.122 44.873-27.122 71.52 0 28.171 10.138 51.583 30.406 70.233 20.269 18.649 44.585 27.978 72.945 27.978 5.71 0 12.371-.478 19.985-1.427-.381 1.521-1.043 3.567-1.997 6.136s-1.715 4.62-2.286 6.14c-.57 1.521-1.047 3.375-1.425 5.566a38.99 38.99 0 0 0-.571 6.71c0 12.563 6.086 26.744 18.271 42.541-14.465.387-28.737 1.67-42.825 3.86-14.084 2.19-28.833 5.616-44.252 10.28-15.417 4.661-29.217 11.42-41.396 20.27-12.182 8.854-21.317 19.366-27.408 31.549C3.533 361.559.01 374.405.01 386.017c0 12.751 2.857 24.314 8.565 34.69 5.708 10.369 13.035 18.842 21.982 25.406 8.945 6.57 19.273 12.083 30.978 16.562 11.704 4.47 23.315 7.659 34.829 9.562 11.516 1.903 22.888 2.854 34.119 2.854 51.007 0 90.981-12.464 119.909-37.397 26.648-23.223 39.971-50.062 39.971-80.517 0-10.855-1.57-20.984-4.712-30.409-3.141-9.431-7.231-17.514-12.279-24.27zM163.311 198.722c-9.707 0-18.937-2.475-27.694-7.426-8.757-4.95-16.18-11.374-22.27-19.273-6.088-7.898-11.418-16.796-15.987-26.695-4.567-9.896-7.944-19.792-10.135-29.692-2.19-9.895-3.284-19.318-3.284-28.265 0-18.271 4.854-33.974 14.562-47.108 9.705-13.134 23.411-19.701 41.112-19.701 12.563 0 23.935 3.899 34.118 11.704 10.183 7.804 18.177 17.701 23.984 29.692a187.496 187.496 0 0 1 13.417 37.257c3.14 12.847 4.711 24.983 4.711 36.403 0 19.036-4.139 34.317-12.419 45.833-8.282 11.513-21.651 17.271-40.115 17.271zm78.94 214.401c-5.23 8.949-12.319 15.94-21.267 20.981-8.946 5.048-18.509 8.758-28.693 11.14-10.183 2.385-20.889 3.572-32.12 3.572-12.182 0-24.27-1.431-36.258-4.284-11.99-2.851-23.459-7.187-34.403-12.991-10.944-5.8-19.795-13.798-26.551-23.982-6.757-10.184-10.135-21.744-10.135-34.69 0-11.419 2.568-21.601 7.708-30.55 5.142-8.945 11.709-16.084 19.702-21.408 7.994-5.332 17.319-9.713 27.979-13.131 10.66-3.433 20.937-5.808 30.833-7.139 9.895-1.335 19.985-1.995 30.262-1.995 6.283 0 11.043.191 14.277.567 1.143.767 4.043 2.759 8.708 5.996s7.804 5.428 9.423 6.57c1.615 1.137 4.567 3.326 8.85 6.563 4.281 3.237 7.327 5.661 9.135 7.279 1.803 1.618 4.421 4.045 7.849 7.279 3.424 3.237 5.948 6.043 7.566 8.422a982.05 982.05 0 0 0 5.996 8.702c2.38 3.433 4.043 6.715 4.998 9.855a158.985 158.985 0 0 1 2.707 10.277c.855 3.72 1.283 7.569 1.283 11.57.005 11.987-2.613 22.456-7.849 31.397z"/>
        <path d="M401.998 73.089V0h-36.549v73.089h-73.091v36.547h73.091v73.089h36.549v-73.089h73.083V73.089z"/>
    </g>
</symbol><symbol id="icon-ios" viewBox="0 0 305 305">
    <g>
        <path d="M40.738 112.119c-25.785 44.745-9.393 112.648 19.121 153.82C74.092 286.523 88.502 305 108.239 305c.372 0 .745-.007 1.127-.022 9.273-.37 15.974-3.225 22.453-5.984 7.274-3.1 14.797-6.305 26.597-6.305 11.226 0 18.39 3.101 25.318 6.099 6.828 2.954 13.861 6.01 24.253 5.815 22.232-.414 35.882-20.352 47.925-37.941 12.567-18.365 18.871-36.196 20.998-43.01l.086-.271a2.5 2.5 0 0 0-1.328-3.066c-.032-.015-.15-.064-.183-.078-3.915-1.601-38.257-16.836-38.618-58.36-.335-33.736 25.763-51.601 30.997-54.839l.244-.152a2.498 2.498 0 0 0 .71-3.511c-18.014-26.362-45.624-30.335-56.74-30.813a50.043 50.043 0 0 0-4.95-.242c-13.056 0-25.563 4.931-35.611 8.893-6.936 2.735-12.927 5.097-17.059 5.097-4.643 0-10.668-2.391-17.645-5.159-9.33-3.703-19.905-7.899-31.1-7.899-.267 0-.53.003-.789.008-26.03.383-50.626 15.275-64.186 38.859z"/>
        <path d="M212.101.002c-15.763.642-34.672 10.345-45.974 23.583-9.605 11.127-18.988 29.679-16.516 48.379a2.499 2.499 0 0 0 2.284 2.164c1.064.083 2.15.125 3.232.126 15.413 0 32.04-8.527 43.395-22.257 11.951-14.498 17.994-33.104 16.166-49.77a2.515 2.515 0 0 0-2.587-2.225z"/>
    </g>
</symbol><symbol id="icon-linkedin" viewBox="0 0 430.117 430.117">
    <path d="M430.117 261.543V420.56h-92.188V272.193c0-37.271-13.334-62.707-46.703-62.707-25.473 0-40.632 17.142-47.301 33.724-2.432 5.928-3.058 14.179-3.058 22.477V420.56h-92.219s1.242-251.285 0-277.32h92.21v39.309c-.187.294-.43.611-.606.896h.606v-.896c12.251-18.869 34.13-45.824 83.102-45.824 60.673-.001 106.157 39.636 106.157 124.818zM52.183 9.558C20.635 9.558 0 30.251 0 57.463c0 26.619 20.038 47.94 50.959 47.94h.616c32.159 0 52.159-21.317 52.159-47.94-.606-27.212-20-47.905-51.551-47.905zM5.477 420.56h92.184V143.24H5.477v277.32z"/>
</symbol><symbol id="icon-pinterest" viewBox="0 0 438.529 438.529">
    <path d="M409.141 109.203c-19.608-33.592-46.205-60.189-79.798-79.796C295.751 9.801 259.065 0 219.281 0 179.5 0 142.812 9.801 109.22 29.407c-33.597 19.604-60.194 46.201-79.8 79.796C9.809 142.8.008 179.485.008 219.267c0 44.35 12.085 84.611 36.258 120.767 24.172 36.172 55.863 62.912 95.073 80.232-.762-20.365.476-37.209 3.709-50.532l28.267-119.348c-4.76-9.329-7.139-20.93-7.139-34.831 0-16.175 4.089-29.689 12.275-40.541 8.186-10.85 18.177-16.274 29.979-16.274 9.514 0 16.841 3.14 21.982 9.42 5.142 6.283 7.705 14.181 7.705 23.7 0 5.896-1.099 13.084-3.289 21.554-2.188 8.471-5.041 18.273-8.562 29.409-3.521 11.132-6.045 20.036-7.566 26.692-2.663 11.608-.476 21.553 6.567 29.838 7.042 8.278 16.372 12.423 27.983 12.423 20.365 0 37.065-11.324 50.107-33.972 13.038-22.655 19.554-50.159 19.554-82.514 0-24.938-8.042-45.21-24.129-60.813-16.085-15.609-38.496-23.417-67.239-23.417-32.161 0-58.192 10.327-78.082 30.978-19.891 20.654-29.836 45.352-29.836 74.091 0 17.132 4.854 31.505 14.56 43.112 3.235 3.806 4.283 7.898 3.14 12.279-.381 1.143-1.141 3.997-2.284 8.562-1.138 4.565-1.903 7.522-2.281 8.851-1.521 6.091-5.14 7.994-10.85 5.708-14.654-6.085-25.791-16.652-33.402-31.689-7.614-15.037-11.422-32.456-11.422-52.246 0-12.753 2.047-25.505 6.14-38.256 4.089-12.756 10.468-25.078 19.126-36.975 8.663-11.9 19.036-22.417 31.123-31.549 12.082-9.135 26.787-16.462 44.108-21.982s35.972-8.28 55.959-8.28c27.032 0 51.295 5.995 72.8 17.986 21.512 11.992 37.925 27.502 49.252 46.537 11.327 19.036 16.987 39.403 16.987 61.101 0 28.549-4.948 54.243-14.842 77.086-9.896 22.839-23.887 40.778-41.973 53.813-18.083 13.042-38.637 19.561-61.675 19.561-11.607 0-22.456-2.714-32.548-8.135-10.085-5.427-17.034-11.847-20.839-19.273-8.566 33.685-13.706 53.77-15.42 60.24-3.616 13.508-11.038 29.119-22.27 46.819 20.367 6.091 41.112 9.13 62.24 9.13 39.781 0 76.47-9.801 110.062-29.41 33.595-19.602 60.192-46.199 79.794-79.791 19.606-33.599 29.407-70.287 29.407-110.065.01-39.778-9.777-76.468-29.376-110.06z"/>
</symbol><symbol id="icon-settings" viewBox="0 0 520.421 520.421">
    <path d="M495.922 325.165l-49.634-34.072a186.886 186.886 0 0 0-.777-66.094l50.624-35.525c11.203-7.862 13.91-23.318 6.048-34.521l-46.269-65.926c-7.862-11.202-23.316-13.912-34.52-6.048l-43.906 30.815a185.561 185.561 0 0 0-49.443-27.732v-61.28C328.044 11.095 316.949 0 303.262 0h-80.538c-13.687 0-24.782 11.095-24.782 24.782v61.277a185.63 185.63 0 0 0-52.041 29.815L99.025 82.978c-11.202-7.862-26.657-5.153-34.52 6.048l-46.267 65.926c-7.862 11.203-5.155 26.66 6.048 34.521l55.554 38.989a187.33 187.33 0 0 0-.691 59.186l-54.651 37.517c-11.285 7.747-14.153 23.174-6.405 34.459l45.585 66.4c7.746 11.282 23.172 14.15 34.457 6.404l44.531-30.57c16.256 13.822 34.918 24.895 55.275 32.504v61.277c0 13.687 11.095 24.782 24.782 24.782h80.541c13.687 0 24.782-11.097 24.782-24.782v-61.277a185.673 185.673 0 0 0 52.771-30.402l41.47 28.468c11.284 7.746 26.71 4.878 34.457-6.404l45.585-66.4c7.746-11.284 4.877-26.712-6.407-34.459zm-195.756-64.954c0 20.529-16.643 37.172-37.172 37.172s-37.174-16.643-37.174-37.172 16.644-37.173 37.174-37.173 37.172 16.642 37.172 37.173z"/>
</symbol><symbol id="icon-star" viewBox="0 0 19.481 19.481">
    <path d="M10.201.758l2.478 5.865 6.344.545a.5.5 0 0 1 .285.876l-4.812 4.169 1.442 6.202a.5.5 0 0 1-.745.541l-5.452-3.288-5.452 3.288a.5.5 0 0 1-.745-.541l1.442-6.202-4.813-4.17a.5.5 0 0 1 .285-.876l6.344-.545L9.28.758a.5.5 0 0 1 .921 0z"/>
</symbol><symbol id="icon-twitter" viewBox="0 0 612 612">
    <path d="M612 116.258a250.714 250.714 0 0 1-72.088 19.772c25.929-15.527 45.777-40.155 55.184-69.411-24.322 14.379-51.169 24.82-79.775 30.48-22.907-24.437-55.49-39.658-91.63-39.658-69.334 0-125.551 56.217-125.551 125.513 0 9.828 1.109 19.427 3.251 28.606-104.326-5.24-196.835-55.223-258.75-131.174-10.823 18.51-16.98 40.078-16.98 63.101 0 43.559 22.181 81.993 55.835 104.479a125.556 125.556 0 0 1-56.867-15.756v1.568c0 60.806 43.291 111.554 100.693 123.104-10.517 2.83-21.607 4.398-33.08 4.398-8.107 0-15.947-.803-23.634-2.333 15.985 49.907 62.336 86.199 117.253 87.194-42.947 33.654-97.099 53.655-155.916 53.655-10.134 0-20.116-.612-29.944-1.721 55.567 35.681 121.536 56.485 192.438 56.485 230.948 0 357.188-191.291 357.188-357.188l-.421-16.253c24.666-17.593 46.005-39.697 62.794-64.861z"/>
</symbol><symbol id="icon-windows" viewBox="0 0 299.35 299.35">
    <g>
        <path d="M125.707 28.43a4.999 4.999 0 0 0-4.193-.999L38.62 45.247a5 5 0 0 0-3.949 4.888v83.487a5 5 0 0 0 5 5h82.894a5 5 0 0 0 5-5V32.32a5.005 5.005 0 0 0-1.858-3.89z"/>
        <path d="M259.679 160.728h-105a5 5 0 0 0-5 5v106.055a5 5 0 0 0 3.949 4.888l105 22.567a4.993 4.993 0 0 0 4.194-.999 4.999 4.999 0 0 0 1.857-3.889V165.728a5 5 0 0 0-5-5z"/>
        <path d="M262.822 1.111a4.998 4.998 0 0 0-4.193-.999l-105 22.567a5 5 0 0 0-3.949 4.888v106.055a5 5 0 0 0 5 5h105a5 5 0 0 0 5-5V5a5.003 5.003 0 0 0-1.858-3.889z"/>
        <path d="M122.564 160.728H39.671a5 5 0 0 0-5 5v83.487a5 5 0 0 0 3.949 4.888l82.894 17.816a5.001 5.001 0 0 0 6.051-4.888V165.728a5.001 5.001 0 0 0-5.001-5z"/>
    </g>
</symbol><symbol id="icon-youtube" viewBox="0 0 90 90">
    <path d="M70.939 65.832H66l.023-2.869a2.329 2.329 0 0 1 2.326-2.318h.315a2.332 2.332 0 0 1 2.332 2.318l-.057 2.869zm-18.526-6.148c-1.253 0-2.278.842-2.278 1.873V75.51c0 1.029 1.025 1.869 2.278 1.869 1.258 0 2.284-.84 2.284-1.869V61.557c0-1.032-1.026-1.873-2.284-1.873zM82.5 51.879v26.544C82.5 84.79 76.979 90 70.23 90H19.771C13.02 90 7.5 84.79 7.5 78.423V51.879c0-6.367 5.52-11.578 12.271-11.578H70.23c6.749 0 12.27 5.211 12.27 11.578zM23.137 81.305l-.004-27.961 6.255.002v-4.143l-16.674-.025v4.073l5.205.015v28.039h5.218zm18.75-23.796h-5.215V72.44c0 2.16.131 3.24-.008 3.621-.424 1.158-2.33 2.388-3.073.125-.126-.396-.015-1.591-.017-3.643l-.021-15.034h-5.186l.016 14.798c.004 2.268-.051 3.959.018 4.729.127 1.357.082 2.939 1.341 3.843 2.346 1.69 6.843-.252 7.968-2.668l-.01 3.083 4.188.005-.001-23.79zM58.57 74.607l-.011-12.427c-.004-4.736-3.547-7.572-8.356-3.74l.021-9.239-5.209.008-.025 31.89 4.284-.062.39-1.986c5.473 5.021 8.914 1.58 8.906-4.444zm16.321-1.647l-3.91.021c-.002.155-.008.334-.01.529v2.182c0 1.168-.965 2.119-2.137 2.119h-.766c-1.174 0-2.139-.951-2.139-2.119v-5.739h8.954v-3.37c0-2.463-.063-4.925-.267-6.333-.641-4.454-6.893-5.161-10.051-2.881a5.887 5.887 0 0 0-2.188 2.945c-.444 1.281-.665 3.031-.665 5.254v7.41c.002 12.318 14.964 10.577 13.179-.018zM54.833 32.732a3.55 3.55 0 0 0 1.254 1.584c.56.394 1.276.592 2.134.592.752 0 1.418-.203 1.998-.622.578-.417 1.065-1.04 1.463-1.871l-.099 2.046h5.813V9.74H62.82v19.24a1.907 1.907 0 0 1-3.811 0V9.74h-4.776v16.674c0 2.124.039 3.54.102 4.258.065.713.229 1.397.498 2.06zM37.217 18.77c0-2.373.198-4.226.591-5.562.396-1.331 1.107-2.401 2.137-3.208 1.027-.811 2.342-1.217 3.941-1.217 1.345 0 2.497.264 3.459.781.967.52 1.713 1.195 2.23 2.028a8 8 0 0 1 1.076 2.574c.195.891.291 2.235.291 4.048v6.252c0 2.293-.092 3.98-.271 5.051a8.006 8.006 0 0 1-1.146 3.004c-.58.924-1.329 1.615-2.237 2.056-.918.445-1.968.663-3.154.663-1.325 0-2.441-.183-3.361-.565-.923-.38-1.636-.953-2.144-1.714-.513-.762-.874-1.69-1.092-2.772-.219-1.081-.323-2.707-.323-4.874l.003-6.545zm4.553 9.82c0 1.4 1.042 2.543 2.311 2.543 1.27 0 2.308-1.143 2.308-2.543V15.43c0-1.398-1.038-2.541-2.308-2.541-1.269 0-2.311 1.143-2.311 2.541v13.16zm-16.088 6.645h5.484l.006-18.96L37.652.033h-5.998l-3.445 12.064L24.715 0h-5.936l6.894 16.284.009 18.951z"/>
</symbol></svg>